<mxfile host="app.diagrams.net" modified="2022-05-16T14:34:06.353Z" agent="5.0 (X11; Linux x86_64) AppleWebKit/537.36 (KHTML, like Gecko) Chrome/101.0.4951.41 Safari/537.36" etag="vgvXjqe3sZ8oVvdv2rCp" version="18.0.2" type="github">
  <diagram id="KR7ZM1xETP8ltUv9e85q" name="Page-1">
    <mxGraphModel dx="2258" dy="1488" grid="1" gridSize="10" guides="1" tooltips="1" connect="1" arrows="1" fold="1" page="1" pageScale="1" pageWidth="1169" pageHeight="827" math="0" shadow="0">
      <root>
        <mxCell id="0" />
        <mxCell id="1" parent="0" />
        <mxCell id="6Hcvg7NSBX95faoXXpHU-7" value="" style="rounded=0;whiteSpace=wrap;html=1;dashed=1;" vertex="1" parent="1">
          <mxGeometry x="190" y="190" width="850" height="110" as="geometry" />
        </mxCell>
        <mxCell id="6Hcvg7NSBX95faoXXpHU-1" value="ZoneModule" style="rounded=0;whiteSpace=wrap;html=1;" vertex="1" parent="1">
          <mxGeometry x="555" y="60" width="120" height="60" as="geometry" />
        </mxCell>
        <mxCell id="6Hcvg7NSBX95faoXXpHU-2" value="CTRAreaData" style="rounded=0;whiteSpace=wrap;html=1;" vertex="1" parent="1">
          <mxGeometry x="224" y="210" width="120" height="60" as="geometry" />
        </mxCell>
        <mxCell id="6Hcvg7NSBX95faoXXpHU-3" value="TakeoffData" style="rounded=0;whiteSpace=wrap;html=1;" vertex="1" parent="1">
          <mxGeometry x="394" y="210" width="120" height="60" as="geometry" />
        </mxCell>
        <mxCell id="6Hcvg7NSBX95faoXXpHU-4" value="LandingPadData" style="rounded=0;whiteSpace=wrap;html=1;" vertex="1" parent="1">
          <mxGeometry x="554" y="210" width="120" height="60" as="geometry" />
        </mxCell>
        <mxCell id="6Hcvg7NSBX95faoXXpHU-5" value="FlightZoneData" style="rounded=0;whiteSpace=wrap;html=1;" vertex="1" parent="1">
          <mxGeometry x="714" y="210" width="120" height="60" as="geometry" />
        </mxCell>
        <mxCell id="6Hcvg7NSBX95faoXXpHU-6" value="EmergancyLandingPointData" style="rounded=0;whiteSpace=wrap;html=1;" vertex="1" parent="1">
          <mxGeometry x="848" y="210" width="172" height="60" as="geometry" />
        </mxCell>
        <mxCell id="6Hcvg7NSBX95faoXXpHU-8" value="" style="endArrow=none;html=1;rounded=0;entryX=0.5;entryY=1;entryDx=0;entryDy=0;exitX=0.5;exitY=0;exitDx=0;exitDy=0;" edge="1" parent="1" source="6Hcvg7NSBX95faoXXpHU-7" target="6Hcvg7NSBX95faoXXpHU-1">
          <mxGeometry width="50" height="50" relative="1" as="geometry">
            <mxPoint x="615" y="180" as="sourcePoint" />
            <mxPoint x="840" y="430" as="targetPoint" />
          </mxGeometry>
        </mxCell>
        <mxCell id="6Hcvg7NSBX95faoXXpHU-9" value="Zone Service" style="rounded=0;whiteSpace=wrap;html=1;" vertex="1" parent="1">
          <mxGeometry x="554" y="400" width="120" height="60" as="geometry" />
        </mxCell>
        <mxCell id="6Hcvg7NSBX95faoXXpHU-10" value="Zone Repo" style="rounded=0;whiteSpace=wrap;html=1;" vertex="1" parent="1">
          <mxGeometry x="554" y="520" width="120" height="60" as="geometry" />
        </mxCell>
        <mxCell id="6Hcvg7NSBX95faoXXpHU-11" value="" style="shape=cylinder3;whiteSpace=wrap;html=1;boundedLbl=1;backgroundOutline=1;size=15;" vertex="1" parent="1">
          <mxGeometry x="584" y="640" width="60" height="80" as="geometry" />
        </mxCell>
        <mxCell id="6Hcvg7NSBX95faoXXpHU-12" value="Zone Schema" style="rounded=0;whiteSpace=wrap;html=1;" vertex="1" parent="1">
          <mxGeometry x="740" y="520" width="120" height="60" as="geometry" />
        </mxCell>
        <mxCell id="6Hcvg7NSBX95faoXXpHU-13" value="" style="endArrow=none;html=1;rounded=0;entryX=0.5;entryY=1;entryDx=0;entryDy=0;exitX=0.5;exitY=0;exitDx=0;exitDy=0;" edge="1" parent="1" source="6Hcvg7NSBX95faoXXpHU-9" target="6Hcvg7NSBX95faoXXpHU-7">
          <mxGeometry width="50" height="50" relative="1" as="geometry">
            <mxPoint x="800" y="350" as="sourcePoint" />
            <mxPoint x="850" y="300" as="targetPoint" />
          </mxGeometry>
        </mxCell>
        <mxCell id="6Hcvg7NSBX95faoXXpHU-15" value="" style="endArrow=none;html=1;rounded=0;exitX=0.5;exitY=0;exitDx=0;exitDy=0;entryX=0.5;entryY=1;entryDx=0;entryDy=0;" edge="1" parent="1" source="6Hcvg7NSBX95faoXXpHU-10" target="6Hcvg7NSBX95faoXXpHU-9">
          <mxGeometry width="50" height="50" relative="1" as="geometry">
            <mxPoint x="800" y="350" as="sourcePoint" />
            <mxPoint x="850" y="300" as="targetPoint" />
          </mxGeometry>
        </mxCell>
        <mxCell id="6Hcvg7NSBX95faoXXpHU-16" value="" style="endArrow=none;html=1;rounded=0;exitX=1;exitY=0.5;exitDx=0;exitDy=0;entryX=0;entryY=0.5;entryDx=0;entryDy=0;" edge="1" parent="1" source="6Hcvg7NSBX95faoXXpHU-10" target="6Hcvg7NSBX95faoXXpHU-12">
          <mxGeometry width="50" height="50" relative="1" as="geometry">
            <mxPoint x="800" y="350" as="sourcePoint" />
            <mxPoint x="850" y="300" as="targetPoint" />
          </mxGeometry>
        </mxCell>
        <mxCell id="6Hcvg7NSBX95faoXXpHU-17" value="" style="endArrow=none;html=1;rounded=0;exitX=0.5;exitY=0;exitDx=0;exitDy=0;exitPerimeter=0;entryX=0.5;entryY=1;entryDx=0;entryDy=0;" edge="1" parent="1" source="6Hcvg7NSBX95faoXXpHU-11" target="6Hcvg7NSBX95faoXXpHU-10">
          <mxGeometry width="50" height="50" relative="1" as="geometry">
            <mxPoint x="800" y="350" as="sourcePoint" />
            <mxPoint x="850" y="300" as="targetPoint" />
          </mxGeometry>
        </mxCell>
        <mxCell id="6Hcvg7NSBX95faoXXpHU-32" value="" style="group" vertex="1" connectable="0" parent="1">
          <mxGeometry x="870" y="630" width="50" height="80" as="geometry" />
        </mxCell>
        <mxCell id="6Hcvg7NSBX95faoXXpHU-28" value="" style="group" vertex="1" connectable="0" parent="6Hcvg7NSBX95faoXXpHU-32">
          <mxGeometry width="50" height="80" as="geometry" />
        </mxCell>
        <mxCell id="6Hcvg7NSBX95faoXXpHU-19" value="" style="ellipse;whiteSpace=wrap;html=1;aspect=fixed;" vertex="1" parent="6Hcvg7NSBX95faoXXpHU-28">
          <mxGeometry y="30.588235294117645" width="12.63157894736842" height="12.63157894736842" as="geometry" />
        </mxCell>
        <mxCell id="6Hcvg7NSBX95faoXXpHU-22" value="" style="ellipse;whiteSpace=wrap;html=1;aspect=fixed;" vertex="1" parent="6Hcvg7NSBX95faoXXpHU-28">
          <mxGeometry x="28.947368421052634" y="14.11764705882353" width="12.63157894736842" height="12.63157894736842" as="geometry" />
        </mxCell>
        <mxCell id="6Hcvg7NSBX95faoXXpHU-24" value="" style="ellipse;whiteSpace=wrap;html=1;aspect=fixed;" vertex="1" parent="6Hcvg7NSBX95faoXXpHU-28">
          <mxGeometry x="26.31578947368421" y="49.411764705882355" width="12.63157894736842" height="12.63157894736842" as="geometry" />
        </mxCell>
        <mxCell id="6Hcvg7NSBX95faoXXpHU-18" value="" style="ellipse;whiteSpace=wrap;html=1;aspect=fixed;" vertex="1" parent="6Hcvg7NSBX95faoXXpHU-28">
          <mxGeometry width="12.63157894736842" height="12.63157894736842" as="geometry" />
        </mxCell>
        <mxCell id="6Hcvg7NSBX95faoXXpHU-26" value="" style="ellipse;whiteSpace=wrap;html=1;aspect=fixed;" vertex="1" parent="6Hcvg7NSBX95faoXXpHU-28">
          <mxGeometry y="61.17647058823529" width="12.63157894736842" height="12.63157894736842" as="geometry" />
        </mxCell>
        <mxCell id="6Hcvg7NSBX95faoXXpHU-27" value="" style="endArrow=none;html=1;rounded=0;exitX=0.5;exitY=0;exitDx=0;exitDy=0;entryX=0.5;entryY=1;entryDx=0;entryDy=0;" edge="1" parent="6Hcvg7NSBX95faoXXpHU-28" source="6Hcvg7NSBX95faoXXpHU-19" target="6Hcvg7NSBX95faoXXpHU-18">
          <mxGeometry width="50" height="50" relative="1" as="geometry">
            <mxPoint x="163.1578947368421" y="2.3529411764705883" as="sourcePoint" />
            <mxPoint x="176.31578947368422" y="-9.411764705882353" as="targetPoint" />
          </mxGeometry>
        </mxCell>
        <mxCell id="6Hcvg7NSBX95faoXXpHU-30" value="" style="endArrow=none;html=1;rounded=0;exitX=1;exitY=1;exitDx=0;exitDy=0;entryX=0.067;entryY=0.3;entryDx=0;entryDy=0;entryPerimeter=0;" edge="1" parent="6Hcvg7NSBX95faoXXpHU-28" source="6Hcvg7NSBX95faoXXpHU-19" target="6Hcvg7NSBX95faoXXpHU-24">
          <mxGeometry width="50" height="50" relative="1" as="geometry">
            <mxPoint x="21.42857142857143" y="40" as="sourcePoint" />
            <mxPoint x="37.69212965742546" y="29.96156027624173" as="targetPoint" />
          </mxGeometry>
        </mxCell>
        <mxCell id="6Hcvg7NSBX95faoXXpHU-31" value="" style="endArrow=none;html=1;rounded=0;exitX=0.5;exitY=1;exitDx=0;exitDy=0;entryX=0.5;entryY=0;entryDx=0;entryDy=0;" edge="1" parent="6Hcvg7NSBX95faoXXpHU-28" source="6Hcvg7NSBX95faoXXpHU-19" target="6Hcvg7NSBX95faoXXpHU-26">
          <mxGeometry width="50" height="50" relative="1" as="geometry">
            <mxPoint x="20.62001594169796" y="47.08424804747612" as="sourcePoint" />
            <mxPoint x="34.516541353383445" y="58.91552410437868" as="targetPoint" />
          </mxGeometry>
        </mxCell>
        <mxCell id="6Hcvg7NSBX95faoXXpHU-29" value="" style="endArrow=none;html=1;rounded=0;" edge="1" parent="6Hcvg7NSBX95faoXXpHU-32" target="6Hcvg7NSBX95faoXXpHU-22">
          <mxGeometry width="50" height="50" relative="1" as="geometry">
            <mxPoint x="14.285714285714286" y="34.285714285714285" as="sourcePoint" />
            <mxPoint x="185.71428571428572" y="-40" as="targetPoint" />
          </mxGeometry>
        </mxCell>
        <mxCell id="6Hcvg7NSBX95faoXXpHU-36" value="" style="group" vertex="1" connectable="0" parent="1">
          <mxGeometry x="730" y="655" width="20" height="30" as="geometry" />
        </mxCell>
        <mxCell id="6Hcvg7NSBX95faoXXpHU-33" value="" style="endArrow=none;html=1;rounded=0;" edge="1" parent="6Hcvg7NSBX95faoXXpHU-36">
          <mxGeometry width="50" height="50" relative="1" as="geometry">
            <mxPoint x="-20" y="20" as="sourcePoint" />
            <mxPoint x="25" y="20" as="targetPoint" />
            <Array as="points">
              <mxPoint />
            </Array>
          </mxGeometry>
        </mxCell>
        <mxCell id="6Hcvg7NSBX95faoXXpHU-35" value="" style="endArrow=none;html=1;rounded=0;" edge="1" parent="6Hcvg7NSBX95faoXXpHU-36">
          <mxGeometry width="50" height="50" relative="1" as="geometry">
            <mxPoint y="15" as="sourcePoint" />
            <mxPoint x="45" y="15" as="targetPoint" />
            <Array as="points">
              <mxPoint x="20" y="30" />
            </Array>
          </mxGeometry>
        </mxCell>
        <mxCell id="6Hcvg7NSBX95faoXXpHU-37" value="" style="endArrow=none;html=1;rounded=0;" edge="1" parent="1">
          <mxGeometry width="50" height="50" relative="1" as="geometry">
            <mxPoint x="660" y="670" as="sourcePoint" />
            <mxPoint x="700" y="670" as="targetPoint" />
          </mxGeometry>
        </mxCell>
        <mxCell id="6Hcvg7NSBX95faoXXpHU-38" value="" style="endArrow=none;html=1;rounded=0;" edge="1" parent="1">
          <mxGeometry width="50" height="50" relative="1" as="geometry">
            <mxPoint x="800" y="669.71" as="sourcePoint" />
            <mxPoint x="840" y="669.71" as="targetPoint" />
          </mxGeometry>
        </mxCell>
      </root>
    </mxGraphModel>
  </diagram>
</mxfile>
